<?xml version="1.0" encoding="UTF-8" standalone="no"?>
<svg xmlns:rdf="http://www.w3.org/1999/02/22-rdf-syntax-ns#" xmlns="http://www.w3.org/2000/svg" height="24" width="24" version="1.1" xmlns:cc="http://creativecommons.org/ns#" xmlns:dc="http://purl.org/dc/elements/1.1/" viewBox="0 0 24 24">
<path d="m12 4a8 8 0 0 0 -8 8 8 8 0 0 0 8 8 8 8 0 0 0 8 -8 8 8 0 0 0 -8 -8zm-2.2793 2.9609a1.32 1.32 0 0 1 1.3183 1.3184 1.32 1.32 0 0 1 -1.3183 1.3203 1.32 1.32 0 0 1 -1.3203 -1.3203 1.32 1.32 0 0 1 1.3203 -1.3184zm4.5583 0a1.32 1.32 0 0 1 1.321 1.3184 1.32 1.32 0 0 1 -1.321 1.3203 1.32 1.32 0 0 1 -1.318 -1.3203 1.32 1.32 0 0 1 1.318 -1.3184zm-6.5993 3.7191a1.32 1.32 0 0 1 1.3203 1.32 1.32 1.32 0 0 1 -1.3203 1.32 1.32 1.32 0 0 1 -1.3203 -1.32 1.32 1.32 0 0 1 1.3203 -1.32zm4.3203 0a1.32 1.32 0 0 1 1.32 1.32 1.32 1.32 0 0 1 -1.32 1.32 1.32 1.32 0 0 1 -1.32 -1.32 1.32 1.32 0 0 1 1.32 -1.32zm4.32 0a1.32 1.32 0 0 1 1.321 1.32 1.32 1.32 0 0 1 -1.321 1.32 1.32 1.32 0 0 1 -1.32 -1.32 1.32 1.32 0 0 1 1.32 -1.32zm-6.5993 3.72a1.32 1.32 0 0 1 1.3183 1.321 1.32 1.32 0 0 1 -1.3183 1.318 1.32 1.32 0 0 1 -1.3203 -1.318 1.32 1.32 0 0 1 1.3203 -1.321zm4.5583 0a1.32 1.32 0 0 1 1.321 1.321 1.32 1.32 0 0 1 -1.321 1.318 1.32 1.32 0 0 1 -1.318 -1.318 1.32 1.32 0 0 1 1.318 -1.321z"/>
<path d="m12 0a12 12 0 0 0 -12 12 12 12 0 0 0 12 12 12 12 0 0 0 12 -12 12 12 0 0 0 -12 -12zm0 2.4a9.6 9.6 0 0 1 9.6 9.6 9.6 9.6 0 0 1 -9.6 9.6 9.6 9.6 0 0 1 -9.6 -9.6 9.6 9.6 0 0 1 9.6 -9.6z"/>
</svg>
